<svg width="20" height="20" viewBox="0 0 20 20" fill="none" xmlns="http://www.w3.org/2000/svg">
<g id="alarm-clock 1" clip-path="url(#clip0_371_1045)">
<g id="Group">
<path id="Vector" d="M13.7828 10.0258H11.3265C11.2014 9.54468 10.8248 9.16808 10.3436 9.0429V5.55486C10.3436 5.36467 10.1895 5.21094 9.9997 5.21094C9.80986 5.21094 9.65578 5.36467 9.65578 5.55486V9.0429C9.06424 9.19663 8.62402 9.73039 8.62402 10.3697C8.62402 11.1284 9.24102 11.7454 9.9997 11.7454C10.6387 11.7454 11.1728 11.3052 11.3265 10.7137H13.7828C13.9727 10.7137 14.1267 10.5599 14.1267 10.3697C14.1267 10.1796 13.973 10.0258 13.7828 10.0258ZM9.9997 11.0576C9.62036 11.0576 9.31186 10.7491 9.31186 10.3697C9.31186 9.9904 9.62036 9.6819 9.9997 9.6819C10.379 9.6819 10.6875 9.9904 10.6875 10.3697C10.6875 10.7491 10.379 11.0576 9.9997 11.0576Z" fill="black"/>
<path id="Vector_2" d="M17.2606 3.35787L18.6693 4.76656C18.7339 4.83122 18.8213 4.86733 18.9124 4.86733C19.0036 4.86733 19.0913 4.83122 19.1556 4.76656C20.2448 3.67771 20.2448 1.90549 19.1556 0.816639C18.0664 -0.272213 16.2945 -0.272213 15.2057 0.816639C15.141 0.881296 15.1049 0.968308 15.1049 1.05979C15.1049 1.15127 15.141 1.23863 15.2057 1.30294L16.7743 2.87156L16.19 3.45588C14.546 1.98253 12.3762 1.08421 10.0001 1.08421C7.62394 1.08421 5.45415 1.98253 3.81021 3.45588L3.22555 2.87156L4.79417 1.30294C4.85882 1.23829 4.89493 1.15127 4.89493 1.05979C4.89493 0.968308 4.85882 0.880952 4.79417 0.816639C3.70531 -0.272213 1.93344 -0.272213 0.844241 0.816639C-0.244955 1.90549 -0.244955 3.67771 0.844241 4.76656C0.908898 4.83122 0.996253 4.86733 1.08739 4.86733C1.17853 4.86733 1.26623 4.83122 1.33054 4.76656L2.73924 3.35787L3.31565 3.93428C1.70645 5.6047 0.713895 7.8732 0.713895 10.3701C0.713895 13.7742 2.55628 16.7546 5.29526 18.3714L4.25387 19.4128C4.11939 19.5472 4.11939 19.7646 4.25387 19.8991C4.32093 19.9661 4.40898 19.9998 4.49702 19.9998C4.58506 19.9998 4.67311 19.9661 4.74017 19.8991L5.9267 18.7125C7.15724 19.3158 8.53946 19.6559 9.99975 19.6559C11.46 19.6559 12.8422 19.3158 14.0728 18.7125L15.2593 19.8991C15.3264 19.9661 15.4144 19.9998 15.5025 19.9998C15.5905 19.9998 15.6786 19.9661 15.7456 19.8991C15.8801 19.7646 15.8801 19.5472 15.7456 19.4128L14.7042 18.3714C17.4432 16.7546 19.2856 13.7742 19.2856 10.3701C19.2856 7.8732 18.293 5.6047 16.6838 3.93428L17.2606 3.35787ZM18.6689 1.30294C19.407 2.041 19.4813 3.19519 18.8922 4.01751L15.9547 1.07974C16.7767 0.490602 17.9305 0.564545 18.6689 1.30294ZM1.10734 4.01716C0.518204 3.19519 0.592491 2.041 1.33054 1.30294C2.0686 0.564889 3.22279 0.490946 4.04476 1.07974L1.10734 4.01716ZM9.99975 18.9681C5.2588 18.9681 1.40174 15.111 1.40174 10.3701C1.40174 5.62912 5.2588 1.77205 9.99975 1.77205C14.7407 1.77205 18.5978 5.62912 18.5978 10.3701C18.5978 15.111 14.741 18.9681 9.99975 18.9681Z" fill="black"/>
<path id="Vector_3" d="M9.99968 3.44973C10.1895 3.44973 10.3436 3.296 10.3436 3.10581V2.76189C10.3436 2.5717 10.1895 2.41797 9.99968 2.41797C9.80984 2.41797 9.65576 2.5717 9.65576 2.76189V3.10581C9.65576 3.29565 9.80984 3.44973 9.99968 3.44973Z" fill="black"/>
<path id="Vector_4" d="M9.99968 17.207C9.80984 17.207 9.65576 17.3608 9.65576 17.551V17.8949C9.65576 18.0851 9.80984 18.2388 9.99968 18.2388C10.1895 18.2388 10.3436 18.0851 10.3436 17.8949V17.551C10.3436 17.3608 10.1899 17.207 9.99968 17.207Z" fill="black"/>
<path id="Vector_5" d="M17.2219 10.6722H17.5658C17.7556 10.6722 17.9097 10.5185 17.9097 10.3283C17.9097 10.1381 17.7556 9.98438 17.5658 9.98438H17.2219C17.032 9.98438 16.8779 10.1381 16.8779 10.3283C16.8779 10.5185 17.032 10.6722 17.2219 10.6722Z" fill="black"/>
<path id="Vector_6" d="M2.7772 9.98438H2.43328C2.24343 9.98438 2.08936 10.1381 2.08936 10.3283C2.08936 10.5185 2.24343 10.6722 2.43328 10.6722H2.7772C2.96704 10.6722 3.12112 10.5185 3.12112 10.3283C3.12112 10.1381 2.96738 9.98438 2.7772 9.98438Z" fill="black"/>
<path id="Vector_7" d="M15.1072 4.73464L14.864 4.9778C14.7296 5.11227 14.7296 5.32963 14.864 5.4641C14.9311 5.53116 15.0191 5.56487 15.1072 5.56487C15.1952 5.56487 15.2833 5.53116 15.3503 5.4641L15.5935 5.22095C15.728 5.08647 15.728 4.86912 15.5935 4.73464C15.459 4.60017 15.2413 4.60017 15.1072 4.73464Z" fill="black"/>
<path id="Vector_8" d="M4.64967 15.1925L4.40652 15.4357C4.27205 15.5701 4.27205 15.7875 4.40652 15.922C4.47358 15.989 4.56163 16.0227 4.64967 16.0227C4.73771 16.0227 4.82576 15.989 4.89282 15.922L5.13597 15.6788C5.27045 15.5444 5.27045 15.327 5.13597 15.1925C5.0015 15.058 4.78414 15.0584 4.64967 15.1925Z" fill="black"/>
<path id="Vector_9" d="M15.3503 15.1927C15.2159 15.0582 14.9985 15.0582 14.864 15.1927C14.7296 15.3271 14.7296 15.5445 14.864 15.679L15.1072 15.9221C15.1743 15.9892 15.2623 16.0229 15.3503 16.0229C15.4384 16.0229 15.5264 15.9892 15.5935 15.9221C15.728 15.7876 15.728 15.5703 15.5935 15.4358L15.3503 15.1927Z" fill="black"/>
<path id="Vector_10" d="M4.89282 4.73464C4.75835 4.60017 4.54099 4.60017 4.40652 4.73464C4.27205 4.86912 4.27205 5.08647 4.40652 5.22095L4.64967 5.4641C4.71674 5.53116 4.80478 5.56487 4.89282 5.56487C4.98087 5.56487 5.06891 5.53116 5.13597 5.4641C5.27045 5.32963 5.27045 5.11227 5.13597 4.9778L4.89282 4.73464Z" fill="black"/>
</g>
</g>
<defs>
<clipPath id="clip0_371_1045">
<rect width="20" height="20" fill="white"/>
</clipPath>
</defs>
</svg>
