<?xml version="1.0" encoding="UTF-8" standalone="no"?>
<!-- Generator: Adobe Illustrator 26.2.1, SVG Export Plug-In . SVG Version: 6.00 Build 0)  -->

<svg
   version="1.1"
   id="Layer_1"
   x="0px"
   y="0px"
   viewBox="0 0 800 200"
   xml:space="preserve"
   sodipodi:docname="Chew_Logo.svg"
   width="800"
   height="200"
   inkscape:version="1.2.2 (732a01da63, 2022-12-09)"
   xmlns:inkscape="http://www.inkscape.org/namespaces/inkscape"
   xmlns:sodipodi="http://sodipodi.sourceforge.net/DTD/sodipodi-0.dtd"
   xmlns="http://www.w3.org/2000/svg"
   xmlns:svg="http://www.w3.org/2000/svg"><defs
   id="defs200" /><sodipodi:namedview
   id="namedview198"
   pagecolor="#505050"
   bordercolor="#eeeeee"
   borderopacity="1"
   inkscape:showpageshadow="0"
   inkscape:pageopacity="0"
   inkscape:pagecheckerboard="0"
   inkscape:deskcolor="#505050"
   showgrid="false"
   inkscape:zoom="1"
   inkscape:cx="428"
   inkscape:cy="88"
   inkscape:window-width="1920"
   inkscape:window-height="974"
   inkscape:window-x="-11"
   inkscape:window-y="-11"
   inkscape:window-maximized="1"
   inkscape:current-layer="Layer_1" />
<style
   type="text/css"
   id="style181">
	.st0{fill:#FFFFFF;}
	.st1{fill:#352C83;}
</style>
<g
   id="g195"
   transform="matrix(1.262427,0,0,1.2531328,-289.727,-576.5664)">
	<path
   class="st0"
   d="m 281.9,507.4 c 8.9,-6.4 18,-9.6 27.3,-9.6 9.9,0 17.9,2.4 23.9,7.2 4.7,3.1 8.3,4.7 10.9,4.7 4.4,0 9.4,-3.8 14.9,-11.5 3,-4.1 4.5,-8.1 4.5,-11.8 0,-3.8 -1.8,-7.1 -5.5,-10.1 -1.4,-1 -3.4,-2.3 -6,-3.8 l -5.1,-3 c -3.6,-2.1 -8.8,-4.2 -15.7,-6.3 -6.9,-2.1 -13.7,-3.1 -20.3,-3.1 -7.2,0 -14.4,1 -21.6,3 -1.7,7.8 -7.6,13.7 -14.9,15.7 1.1,3.5 1.3,7.3 0.6,11.1 l -0.3,1.7 c -2.3,12.3 -13.8,20.6 -26.1,19 0,1.1 -0.1,2.2 -0.3,3.3 l -0.3,1.5 c -1.7,9.3 -9.3,16 -18.2,17.1 -0.1,2.1 -0.2,4.2 -0.2,6.3 0,11.1 1.9,21.3 5.6,30.8 3.8,9.4 8.6,17.2 14.4,23.2 5.8,6 12.4,11.2 19.7,15.3 7.3,4.2 14.4,7.2 21.3,8.9 6.9,1.8 13.7,2.7 20.5,2.7 6.7,0 13.7,-1.1 21,-3.4 7.3,-2.3 12,-4.1 14.4,-5.5 2.3,-1.4 4.8,-2.9 7.4,-4.5 2.6,-1.6 4.8,-3.3 6.7,-5.3 1.9,-2 2.9,-4.5 2.9,-7.5 0,-3 -1.6,-7 -4.7,-11.9 -5.1,-8 -9.9,-11.9 -14.3,-11.9 -2,0 -5.4,1.4 -10.2,4.3 l -3.8,2.8 c -1.7,1.1 -4.5,2.3 -8.4,3.4 -3.9,1.1 -8.1,1.7 -12.5,1.7 -9.4,0 -18.4,-3.1 -27.1,-9.4 -4.4,-3.3 -8,-7.7 -10.9,-13.4 -2.8,-5.7 -4.3,-12.1 -4.3,-19.3 0,-7.2 1.4,-13.6 4.3,-19.3 2.6,-5.6 6.2,-10 10.4,-13.1 z"
   id="path183" />
	<path
   class="st0"
   d="m 505,465.2 c -1.3,-1 -3.1,-1.8 -5.5,-2.6 -2.4,-0.7 -5.7,-1.1 -9.8,-1.1 -4.1,0 -7.5,0.4 -10.2,1.3 -2.7,0.9 -4.6,2.3 -5.8,4.5 -1.1,2.1 -1.8,4 -2,5.6 -0.2,1.6 -0.3,4.1 -0.3,7.4 V 524 h -56.5 v -43.5 c 0,-5 -0.4,-8.7 -1.1,-11.1 -1.8,-5.3 -7.7,-7.9 -17.7,-7.9 -9.1,0 -14.6,1.9 -16.6,5.8 -1.1,2.1 -1.8,4 -2,5.6 -0.2,1.6 -0.3,4.1 -0.3,7.4 v 118.2 c 0,5 0.4,8.7 1.3,11.1 1.7,5.3 7.5,7.9 17.5,7.9 9.1,0 14.6,-1.9 16.6,-5.8 1.1,-2.1 1.8,-4 2,-5.6 0.2,-1.6 0.3,-4.1 0.3,-7.4 v -43.5 h 56.5 v 43.3 c 0,5 0.4,8.7 1.3,11.1 1.7,5.3 7.5,7.9 17.5,7.9 9.1,0 14.6,-1.9 16.6,-5.8 1.1,-2.1 1.8,-4 2,-5.6 0.2,-1.6 0.3,-4.1 0.3,-7.4 V 480.6 c 0,-5 -0.4,-8.7 -1.1,-11.1 -0.7,-1.9 -1.7,-3.3 -3,-4.3 z"
   id="path185" />
	<path
   class="st0"
   d="m 629.2,499.3 c 5,0 8.7,-0.4 11.1,-1.3 5.3,-1.7 7.9,-7.5 7.9,-17.5 0,-9.1 -1.9,-14.6 -5.8,-16.6 -2.1,-1.1 -4,-1.8 -5.6,-2 -1.6,-0.2 -4.1,-0.3 -7.4,-0.3 h -83.9 c -7.5,0 -12.6,1.3 -15.3,3.9 -2.7,2.6 -4,7.6 -4,14.8 v 118.5 c 0,5 0.4,8.6 1.3,10.9 1.7,5.4 7.5,8.1 17.5,8.1 h 84.4 c 5,0 8.7,-0.4 11.1,-1.3 5.3,-1.7 7.9,-7.5 7.9,-17.5 0,-9.1 -1.9,-14.6 -5.8,-16.6 -2.1,-1.1 -4,-1.8 -5.6,-2 -1.6,-0.2 -4.1,-0.3 -7.4,-0.3 H 564 v -21.5 h 41.8 c 5,0 8.7,-0.4 11.1,-1.3 5.4,-1.7 8.1,-7.5 8.1,-17.5 0,-9.1 -1.9,-14.6 -5.8,-16.6 -2.1,-1.1 -4,-1.8 -5.6,-2 -1.6,-0.2 -4.1,-0.3 -7.4,-0.3 H 564 v -21.5 h 65.2 z"
   id="path187" />
	<path
   class="st0"
   d="m 848.9,462.4 c -3.8,-1.4 -7.2,-2.1 -10,-2.1 -2.8,0 -5.2,0.7 -7.1,2.2 -1.9,1.5 -3.2,3 -3.9,4.6 -0.7,1.6 -1.6,4 -2.8,7.2 L 801.6,546 777.1,472 c -0.9,-2.3 -2.8,-4.6 -6,-6.9 -3.1,-2.3 -6.5,-3.5 -10.1,-3.5 -3.6,0 -6.6,0.5 -8.8,1.5 -5.3,2.3 -8.9,6.4 -10.9,12.4 l -23.2,70.1 -23.4,-71.2 c -1.4,-4.7 -3,-8.2 -4.8,-10.4 -1.8,-2.3 -4.3,-3.4 -7.7,-3.4 -3.3,0 -7.1,0.7 -11.2,2.1 -9.5,3.3 -14.3,7.7 -14.3,13.4 0,2.3 0.8,5.8 2.3,10.4 l 41.1,118.2 1.5,3.2 c 1,2.1 2.9,4.3 5.9,6.4 2.9,2.1 6.6,3.2 11.2,3.2 4.5,0 8.4,-1.6 11.7,-4.9 1.3,-1.3 2.4,-2.7 3.4,-4.3 1,-1.6 1.6,-2.8 1.9,-3.6 0.3,-0.9 8.3,-24.6 24.1,-71.2 l 24.9,73.5 c 1,2.3 3,4.6 6.1,6.9 3.1,2.3 6.7,3.5 10.9,3.5 4.2,0 7.8,-1.2 10.9,-3.5 3.1,-2.3 4.9,-4.2 5.6,-5.6 0.7,-1.4 1.2,-2.6 1.5,-3.6 l 40.9,-118.2 c 1.7,-5.1 2.6,-8.6 2.6,-10.4 -0.1,-5.7 -4.8,-10.2 -14.3,-13.7 z"
   id="path189" />
	
	
</g>
</svg>
