<svg width="27" height="27" viewBox="0 0 27 27" fill="none" xmlns="http://www.w3.org/2000/svg">
<g id="pizza-delivery 1">
<path id="Vector" d="M21.9375 22.3594H9.28125C8.1 22.3594 7.17188 21.4312 7.17188 20.25V9.28125C7.17188 9.02812 7.34062 8.85938 7.59375 8.85938H23.625C23.8781 8.85938 24.0469 9.02812 24.0469 9.28125V20.25C24.0469 21.4312 23.1187 22.3594 21.9375 22.3594ZM8.01562 9.70312V20.25C8.01562 20.9672 8.56406 21.5156 9.28125 21.5156H21.9375C22.6547 21.5156 23.2031 20.9672 23.2031 20.25V9.70312H8.01562Z" fill="black"/>
<path id="Vector_2" d="M23.6246 9.70391H7.59336C7.42461 9.70391 7.29805 9.61953 7.21367 9.49297C7.1293 9.36641 7.1293 9.19766 7.21367 9.07109L8.90117 6.53984C8.98555 6.41328 9.11211 6.37109 9.23867 6.37109H21.8949C22.0215 6.37109 22.148 6.45547 22.2324 6.53984L23.9199 9.07109C24.0043 9.19766 24.0043 9.36641 23.9199 9.49297C23.8355 9.61953 23.7934 9.70391 23.6246 9.70391ZM8.39492 8.86016H22.8652L21.7262 7.17266H9.4918L8.39492 8.86016Z" fill="black"/>
<path id="Vector_3" d="M21.9375 7.17188H9.28125C9.02812 7.17188 8.85938 7.00313 8.85938 6.75V4.21875C8.85938 3.50156 9.40781 2.95312 10.125 2.95312H21.0938C21.8109 2.95312 22.3594 3.50156 22.3594 4.21875V6.75C22.3594 7.00313 22.1906 7.17188 21.9375 7.17188ZM9.70312 6.32812H21.5156V4.21875C21.5156 3.96563 21.3469 3.79688 21.0938 3.79688H10.125C9.87188 3.79688 9.70312 3.96563 9.70312 4.21875V6.32812Z" fill="black"/>
<path id="Vector_4" d="M17.2969 5.48438H13.9219C13.6687 5.48438 13.5 5.31562 13.5 5.0625C13.5 4.80938 13.6687 4.64062 13.9219 4.64062H17.2969C17.55 4.64062 17.7188 4.80938 17.7188 5.0625C17.7188 5.31562 17.55 5.48438 17.2969 5.48438ZM9.28125 22.3594H5.0625C4.80938 22.3594 4.64062 22.1906 4.64062 21.9375C4.64062 21.6844 4.80938 21.5156 5.0625 21.5156H9.28125C9.53438 21.5156 9.70312 21.6844 9.70312 21.9375C9.70312 22.1906 9.53438 22.3594 9.28125 22.3594ZM3.375 22.3594H2.53125C2.27813 22.3594 2.10938 22.1906 2.10938 21.9375C2.10938 21.6844 2.27813 21.5156 2.53125 21.5156H3.375C3.62812 21.5156 3.79688 21.6844 3.79688 21.9375C3.79688 22.1906 3.62812 22.3594 3.375 22.3594ZM7.59375 9.70312H5.0625C4.80938 9.70312 4.64062 9.53438 4.64062 9.28125C4.64062 9.02812 4.80938 8.85938 5.0625 8.85938H7.59375C7.84688 8.85938 8.01562 9.02812 8.01562 9.28125C8.01562 9.53438 7.84688 9.70312 7.59375 9.70312ZM2.53125 9.70312H1.6875C1.43437 9.70312 1.26562 9.53438 1.26562 9.28125C1.26562 9.02812 1.43437 8.85938 1.6875 8.85938H2.53125C2.78437 8.85938 2.95312 9.02812 2.95312 9.28125C2.95312 9.53438 2.78437 9.70312 2.53125 9.70312ZM9.28125 7.17188H7.59375C7.34062 7.17188 7.17188 7.00313 7.17188 6.75C7.17188 6.49688 7.34062 6.32812 7.59375 6.32812H9.28125C9.53438 6.32812 9.70312 6.49688 9.70312 6.75C9.70312 7.00313 9.53438 7.17188 9.28125 7.17188ZM5.90625 7.17188H3.375C3.12188 7.17188 2.95312 7.00313 2.95312 6.75C2.95312 6.49688 3.12188 6.32812 3.375 6.32812H5.90625C6.15938 6.32812 6.32812 6.49688 6.32812 6.75C6.32812 7.00313 6.15938 7.17188 5.90625 7.17188ZM10.125 3.79688H5.90625C5.65312 3.79688 5.48438 3.62813 5.48438 3.375C5.48438 3.12187 5.65312 2.95312 5.90625 2.95312H10.125C10.3781 2.95312 10.5469 3.12187 10.5469 3.375C10.5469 3.62813 10.3781 3.79688 10.125 3.79688ZM4.21875 3.79688H3.375C3.12188 3.79688 2.95312 3.62813 2.95312 3.375C2.95312 3.12187 3.12188 2.95312 3.375 2.95312H4.21875C4.47187 2.95312 4.64062 3.12187 4.64062 3.375C4.64062 3.62813 4.47187 3.79688 4.21875 3.79688ZM7.59375 13.9219H3.375C3.12188 13.9219 2.95312 13.7531 2.95312 13.5C2.95312 13.2469 3.12188 13.0781 3.375 13.0781H7.59375C7.84688 13.0781 8.01562 13.2469 8.01562 13.5C8.01562 13.7531 7.84688 13.9219 7.59375 13.9219ZM7.59375 18.1406H4.21875C3.96563 18.1406 3.79688 17.9719 3.79688 17.7188C3.79688 17.4656 3.96563 17.2969 4.21875 17.2969H7.59375C7.84688 17.2969 8.01562 17.4656 8.01562 17.7188C8.01562 17.9719 7.84688 18.1406 7.59375 18.1406ZM2.53125 18.1406H1.6875C1.43437 18.1406 1.26562 17.9719 1.26562 17.7188C1.26562 17.4656 1.43437 17.2969 1.6875 17.2969H2.53125C2.78437 17.2969 2.95312 17.4656 2.95312 17.7188C2.95312 17.9719 2.78437 18.1406 2.53125 18.1406ZM16.0734 20.7984C15.8625 20.7984 15.6516 20.7563 15.4406 20.6297C14.3437 20.0391 13.3313 19.2797 12.4453 18.3516C11.475 17.3391 10.7156 16.2844 10.1672 15.3141C9.99844 14.9766 9.95625 14.5969 10.125 14.2594C10.2516 13.8797 10.5469 13.6266 10.9266 13.5L19.1953 11.0953C19.3641 11.0531 19.4906 11.0953 19.6172 11.2219C19.7437 11.3484 19.7859 11.475 19.7437 11.6438C19.0266 14.0063 18.1828 16.875 17.2969 19.8703C17.2125 20.2078 16.9594 20.5031 16.6219 20.6719C16.4531 20.7563 16.2422 20.7984 16.0734 20.7984ZM18.6891 12.1078L11.1375 14.3016C11.0109 14.3438 10.9266 14.4281 10.8844 14.5547C10.8422 14.6391 10.8422 14.7656 10.8844 14.8922C11.3906 15.8203 12.1078 16.8328 12.9937 17.7609C13.8375 18.6047 14.7656 19.3219 15.8203 19.8703C15.9469 19.9547 16.1156 19.9547 16.2422 19.8703C16.3266 19.8281 16.4109 19.7859 16.4531 19.6172C17.2969 16.9594 18.0562 14.3438 18.6891 12.1078Z" fill="black"/>
<path id="Vector_5" d="M16.9176 19.0691C16.8332 19.0691 16.791 19.0691 16.7066 19.027C15.6941 18.4363 14.766 17.7191 13.9223 16.8754C13.1207 16.0316 12.4035 15.1035 11.8129 14.091C11.6863 13.8801 11.7707 13.627 11.9395 13.5004C12.1504 13.3738 12.4035 13.4582 12.5301 13.627C13.1207 14.5973 13.7957 15.4832 14.5551 16.2426C15.3145 17.002 16.2004 17.677 17.1707 18.2254C17.3816 18.352 17.4238 18.6051 17.3395 18.816C17.2129 18.9848 17.0441 19.0691 16.9176 19.0691Z" fill="black"/>
<path id="Vector_6" d="M15.4408 16.3694C15.3143 16.3694 15.1455 16.285 15.0611 16.1585L14.1752 14.6819C14.0486 14.471 14.133 14.2178 14.3018 14.0913C14.4705 13.9647 14.7658 14.0491 14.8924 14.2178L15.7783 15.6944C15.9049 15.9053 15.8205 16.1585 15.6518 16.285C15.6096 16.3694 15.5252 16.3694 15.4408 16.3694ZM16.6221 15.7788C16.5799 15.7788 16.5377 15.7788 16.4955 15.7366C16.2846 15.6522 16.158 15.4413 16.2424 15.1881L16.833 13.4163C16.9174 13.2053 17.1283 13.0788 17.3814 13.1631C17.5924 13.2475 17.7189 13.4585 17.6346 13.7116L17.0439 15.4835C16.9596 15.6522 16.7908 15.7788 16.6221 15.7788Z" fill="black"/>
</g>
</svg>
