<svg width="36" height="34" viewBox="0 0 36 34" fill="none" xmlns="http://www.w3.org/2000/svg">
<g id="Group 38336">
<path id="Vector" fill-rule="evenodd" clip-rule="evenodd" d="M25.8505 0.996774C34.3014 3.6857 35.4538 13.4811 35.4538 13.4811C35.7419 15.9779 35.6459 18.3787 35.1657 20.8756C35.1657 20.9716 35.0697 21.1637 35.0697 21.2597C34.6856 22.8923 34.0133 26.3495 28.5395 30.5749C27.3871 31.5353 26.0426 32.4956 24.6021 32.6877C24.41 32.6877 24.218 32.6877 24.218 32.5916C24.1219 32.4956 24.41 32.1115 24.5061 32.1115C28.1553 29.9027 33.2451 26.2534 33.4371 17.6105C33.4371 17.6105 33.9173 9.44768 28.9236 5.60636C27.195 4.26189 25.2743 3.20553 23.1616 2.43727C22.8735 2.34124 20.3767 1.76504 20.2806 2.2452C20.1846 2.8214 21.2409 2.91743 21.7211 2.91743C22.7775 3.01347 23.8338 3.3976 24.7942 3.87776C28.7315 5.79842 30.076 8.10321 30.5561 8.96751C30.5561 9.06354 30.6522 9.15958 30.6522 9.15958C32.1887 11.6564 32.2847 16.266 32.2847 17.5144C32.2847 17.6105 32.2847 17.7065 32.2847 17.7065C32.3808 22.2201 30.076 25.2931 28.9236 26.9257C28.9236 27.0217 28.8276 27.0217 28.8276 27.1177C26.9069 29.7106 22.7775 32.9758 15.8631 33.552C12.8861 33.744 9.90906 33.1678 7.22013 31.7273C5.39551 30.5749 3.85898 29.0384 2.70658 27.2138C2.41848 26.6376 1.74625 25.005 2.51452 24.909C2.80262 24.909 3.09071 25.2931 3.57088 25.9653C3.85898 26.4455 4.33914 26.9257 4.81931 27.5019C5.87567 28.7503 7.22013 29.8067 8.66063 30.5749C10.8694 31.6313 13.4623 32.2075 14.5186 32.1115C14.6147 32.1115 14.7107 32.0154 14.7107 31.9194C14.7107 31.8234 14.6147 31.7273 14.5186 31.7273C13.4623 31.5353 12.4059 31.3432 11.4456 31.0551C8.85269 29.9987 6.5479 28.2701 4.72328 26.1574C3.76295 24.813 3.09071 23.3725 2.80262 21.7399C2.51452 19.4351 2.51452 17.0343 2.70658 14.7295C3.18675 11.5604 4.91534 8.67941 7.31617 6.66272C8.66063 5.51033 10.8694 4.54999 12.1178 4.06983C12.5019 3.9738 12.694 3.78173 12.8861 3.78173C12.9821 3.78173 12.9821 3.6857 12.9821 3.6857C12.9821 3.58966 12.8861 3.58966 12.8861 3.58966C12.694 3.58966 12.598 3.58966 12.4059 3.58966C12.3099 3.58966 12.3099 3.58966 12.2138 3.58966C12.1178 3.58966 12.1178 3.58966 12.0218 3.58966C11.6377 3.6857 1.74625 5.89446 1.55419 17.9946C1.55419 19.051 0.593857 18.4748 0.497824 17.8025C0.209725 16.074 0.209725 14.2493 0.593857 12.5207C1.36212 9.54371 3.09071 6.95082 5.39551 5.03016C8.2765 2.5333 12.4059 1.09281 15.7671 0.516609H15.8631C18.8401 -0.0595891 21.2409 -0.443721 25.8505 0.996774ZM2.03435 23.0844C1.93832 22.6042 1.93832 22.2201 1.93832 21.7399C1.93832 21.1637 1.84229 20.6835 1.55419 20.2034C1.36212 20.0113 1.17005 19.9153 0.881956 19.9153C-0.366473 19.9153 0.017659 21.8359 0.209725 22.5082C0.305758 22.7963 0.401791 23.0844 0.68989 23.2764C0.881956 23.4685 1.17005 23.5645 1.45815 23.6606C1.65022 23.7566 1.74625 23.6606 1.93832 23.5645C2.03435 23.4685 2.13038 23.2764 2.03435 23.0844Z" fill="#DA1A32"/>
<path id="Vector_2" d="M26.3304 15.7862C26.1384 15.6902 26.0423 15.6902 25.8503 15.5941C25.3701 15.4021 24.2177 15.114 23.3534 14.9219C22.8732 14.8259 22.297 14.6338 22.201 14.6338C22.0089 14.1536 21.9129 13.5774 21.8169 13.0973C21.8169 12.9052 21.7208 12.7132 21.7208 12.6171C21.6248 12.329 21.5288 12.137 21.2407 12.233C21.1446 12.233 19.8002 12.6171 17.5914 13.1933C16.1509 13.5775 14.6144 13.9616 14.5184 13.9616C14.4223 13.9616 14.3263 14.0576 13.366 15.5941C13.0779 16.0743 12.6937 16.6505 12.6937 16.6505C12.6937 16.6505 12.5017 16.7465 12.2136 16.8426C11.6374 17.1307 10.485 17.6108 9.52465 18.187C8.37225 18.8593 7.21985 19.5315 6.25952 20.3958C6.16349 20.4918 6.16349 20.5879 6.25952 20.6839C6.35556 20.7799 6.54762 20.876 6.73969 20.876H6.83572C7.02779 20.876 13.6541 19.5315 17.3994 18.8593C18.3597 18.6672 19.5121 18.5712 20.9526 18.3791C24.4098 17.995 27.8669 17.8029 28.059 17.8029C28.2511 17.8029 28.4431 17.7069 28.6352 17.6108C28.7312 17.5148 28.8273 17.3227 28.8273 17.1307C28.5392 16.7465 27.8669 16.4584 26.3304 15.7862Z" fill="white"/>
</g>
</svg>
