<svg width="238" height="59" viewBox="0 0 238 59" fill="none" xmlns="http://www.w3.org/2000/svg">
<g id="Group 38265">
<path id="Vector" fill-rule="evenodd" clip-rule="evenodd" d="M223.394 39.3379H221.551V39.6721H222.221V41.6777H222.724V39.6721H223.394V39.3379ZM224.399 39.3379H223.729V41.6777H224.232V39.6721L224.902 41.6777H225.237L225.907 39.6721V41.6777H226.41V39.3379H225.74L225.07 41.1763L224.399 39.3379Z" fill="black"/>
<g id="Group 38264">
<path id="Vector_2" fill-rule="evenodd" clip-rule="evenodd" d="M45.1056 1.73468C59.8513 6.4142 61.862 23.461 61.862 23.461C62.3647 27.8063 62.1972 31.9845 61.3594 36.3297C61.3594 36.4968 61.1918 36.8311 61.1918 36.9982C60.5215 39.8394 59.3486 45.8559 49.7974 53.2094C47.7866 54.8807 45.4407 56.5519 42.9273 56.8862C42.5922 56.8862 42.257 56.8862 42.257 56.7191C42.0895 56.5519 42.5921 55.8834 42.7597 55.8834C49.1272 52.0395 58.0081 45.6888 58.3432 30.6474C58.3432 30.6474 59.181 16.4417 50.4677 9.75672C47.4515 7.41696 44.1002 5.57857 40.4138 4.24157C39.9111 4.07444 35.5545 3.07169 35.3869 3.90732C35.2193 4.91007 37.0625 5.0772 37.9003 5.0772C39.7436 5.24432 41.5868 5.91283 43.2624 6.74846C50.1325 10.091 52.4784 14.102 53.3163 15.6061C53.3163 15.7732 53.4838 15.9404 53.4838 15.9404C56.1649 20.2856 56.3324 28.3077 56.3324 30.4803C56.3324 30.6474 56.3324 30.8146 56.3324 30.8146C56.5 38.6695 52.4784 44.0175 50.4677 46.8586C50.4677 47.0258 50.3001 47.0258 50.3001 47.1929C46.9488 51.7053 39.7436 57.3876 27.6789 58.3903C22.4844 58.7246 17.2899 57.7218 12.5981 55.2149C9.41442 53.2094 6.73338 50.5354 4.72261 47.36C4.21992 46.3573 3.04697 43.5161 4.38748 43.349C4.89018 43.349 5.39287 44.0175 6.23069 45.1874C6.73338 46.023 7.57121 46.8586 8.40903 47.8614C10.2522 50.034 12.5981 51.8724 15.1116 53.2094C18.9656 55.0478 23.4898 56.0506 25.333 55.8834C25.5006 55.8834 25.6682 55.7163 25.6682 55.5492C25.6682 55.3821 25.5006 55.2149 25.333 55.2149C23.4898 54.8807 21.6466 54.5464 19.971 54.0451C15.4467 52.2067 11.4252 49.1984 8.24146 45.5216C6.56582 43.1819 5.39287 40.675 4.89018 37.8339C4.38748 33.8228 4.38748 29.6447 4.72261 25.6337C5.56043 20.1185 8.57659 15.1047 12.7657 11.5951C15.1116 9.5896 18.9656 7.91834 21.1439 7.08271C21.8142 6.91558 22.1493 6.58133 22.4844 6.58133C22.652 6.58133 22.652 6.4142 22.652 6.4142C22.652 6.24708 22.4844 6.24708 22.4844 6.24708C22.1493 6.24708 21.9817 6.24708 21.6466 6.24708C21.479 6.24708 21.479 6.24708 21.3115 6.24708C21.1439 6.24708 21.1439 6.24708 20.9764 6.24708C20.3061 6.4142 3.04697 10.2581 2.71184 31.3159C2.71184 33.1543 1.0362 32.1516 0.868634 30.9817C0.365941 27.9734 0.365941 24.798 1.0362 21.7898C2.37671 16.6089 5.39287 12.0965 9.41442 8.75397C14.4413 4.4087 21.6466 1.90181 27.5114 0.899052H27.6789C32.8734 -0.103703 37.0625 -0.772206 45.1056 1.73468ZM3.54966 40.1736C3.3821 39.338 3.3821 38.6695 3.3821 37.8339C3.3821 36.8311 3.21453 35.9955 2.71184 35.1598C2.37671 34.8256 2.04158 34.6585 1.53889 34.6585C-0.639445 34.6585 0.0308126 38.001 0.365941 39.1709C0.533505 39.6722 0.70107 40.1736 1.20376 40.5079C1.53889 40.8421 2.04158 41.0092 2.54428 41.1764C2.87941 41.3435 3.04697 41.1764 3.3821 41.0092C3.54966 40.8421 3.71723 40.5079 3.54966 40.1736Z" fill="#DA1A32"/>
<path id="Vector_3" d="M45.9435 27.4722C45.6084 27.3051 45.4408 27.3051 45.1057 27.138C44.2679 26.8037 42.2571 26.3024 40.749 25.9681C39.9112 25.801 38.9058 25.4667 38.7382 25.4667C38.4031 24.6311 38.2355 23.6283 38.068 22.7927C38.068 22.4585 37.9004 22.1242 37.9004 21.9571C37.7328 21.4557 37.5653 21.1215 37.0626 21.2886C36.895 21.2886 34.5491 21.9571 30.6951 22.9598C28.1817 23.6284 25.5006 24.2969 25.3331 24.2969C25.1655 24.2969 24.998 24.464 23.3223 27.138C22.8196 27.9736 22.1494 28.9764 22.1494 28.9764C22.1494 28.9764 21.8142 29.1435 21.3115 29.3106C20.3061 29.812 18.2954 30.6476 16.6197 31.6504C14.609 32.8203 12.5982 33.9902 10.9225 35.4943C10.755 35.6614 10.755 35.8285 10.9225 35.9957C11.0901 36.1628 11.4252 36.3299 11.7604 36.3299H11.9279C12.2631 36.3299 23.825 33.9901 30.36 32.8203C32.0357 32.486 34.0464 32.3189 36.5599 31.9846C42.5922 31.3161 48.6245 30.9819 48.9597 30.9819C49.2948 30.9819 49.6299 30.8148 49.965 30.6476C50.1326 30.4805 50.3002 30.1463 50.3002 29.812C49.7975 29.1435 48.6245 28.6421 45.9435 27.4722Z" fill="white"/>
<path id="Vector_4" fill-rule="evenodd" clip-rule="evenodd" d="M84.8186 31.1485C83.6456 31.3156 82.6402 31.4828 81.97 32.1513C83.1429 33.8225 85.4888 33.6554 87.1645 33.4883C92.8617 32.9869 98.894 29.3101 99.0615 23.795C99.2291 16.9428 92.5265 13.0989 85.6564 13.6003C82.8078 13.7674 78.4511 14.603 79.4565 18.6141C80.2943 19.1154 81.1321 19.1154 82.1375 19.1154C82.3051 19.1154 82.6402 19.1154 82.8078 19.1154C79.2889 22.9593 76.4404 27.1375 74.262 31.817C72.4188 35.4938 71.0783 39.3377 70.0729 43.3487C70.0729 43.5158 70.0729 43.5158 70.0729 43.6829C69.7378 45.0199 69.4027 46.6912 70.9107 47.8611C73.5918 47.694 74.7647 45.1871 75.7701 43.1816C75.9377 42.8473 76.1052 42.5131 76.2728 42.3459C76.4403 42.0117 76.6079 41.6774 76.7755 41.3432C80.4619 34.491 84.3159 27.4717 86.6618 19.4497C90.1806 19.9511 93.0292 21.7895 93.1968 24.7977C93.3643 28.3074 89.0077 30.3129 86.3266 30.9814C85.8239 30.9814 85.3213 30.9814 84.8186 31.1485ZM180.498 27.1375C181.168 25.8005 181.671 24.6306 182.173 23.2936C182.509 22.458 182.844 21.7895 183.179 20.7867C183.179 20.6196 183.346 20.4524 183.346 20.2853C184.184 18.6141 186.027 14.603 183.682 14.1017H183.514C180.498 14.9373 178.152 19.1154 175.974 22.7922C174.968 24.4635 174.13 25.9676 173.293 27.1375C173.125 27.1375 172.957 27.1375 172.79 27.1375C169.606 26.9704 165.92 26.9704 166.087 29.3101C166.255 30.8143 167.763 31.3156 169.271 31.9841C169.774 32.1513 170.444 32.4855 170.947 32.6526C170.779 32.9869 170.612 33.3211 170.444 33.9896C169.271 36.9979 167.093 42.6802 169.774 44.3514C173.125 46.3569 174.801 41.6774 175.638 39.5048C176.309 37.165 177.314 34.8253 178.319 32.6526C179.492 32.4855 180.833 32.3184 182.173 32.1513C183.514 31.817 184.854 31.6499 186.027 31.6499C186.027 31.9841 185.86 32.3184 185.692 32.6526C185.022 34.8253 184.352 37.4993 185.525 40.0062C188.038 41.5103 189.881 39.839 190.552 38.3349C191.222 36.9979 191.725 34.9924 192.06 33.154C192.395 31.6499 192.73 30.1457 193.065 29.3101C193.568 28.9759 194.071 28.8087 194.573 28.6416C195.914 28.1402 197.087 27.6389 197.422 26.3019C196.752 25.8005 196.081 25.9676 195.243 26.1347C194.741 26.3019 194.406 26.3019 193.903 26.3019C194.406 24.6306 194.908 22.9593 195.579 21.2881C195.746 20.9538 195.746 20.7867 195.914 20.4525C196.416 18.9483 197.087 17.2771 195.914 15.7729C193.568 16.1072 192.227 18.2798 191.222 19.9511C191.054 20.1182 190.887 20.4524 190.887 20.6196C190.217 21.6223 189.714 22.6251 189.211 23.795C188.541 24.9648 188.038 26.1347 187.368 27.1375C186.53 27.1375 185.692 27.1375 185.022 27.3046C183.849 27.1375 182.173 27.3046 180.498 27.1375ZM103.251 18.6141C104.759 16.2743 109.786 13.9345 112.634 14.9373C112.299 16.9428 111.126 18.1127 109.786 19.6168C109.618 19.7839 109.451 19.9511 109.283 20.2853C109.115 20.4524 108.948 20.6196 108.78 20.9538C107.607 22.2908 106.099 24.1292 103.921 23.6278C101.91 22.9593 102.245 20.1182 103.251 18.6141ZM226.578 19.1154C224.567 18.6141 223.394 19.7839 222.389 21.2881C222.221 21.4552 222.054 21.7895 221.886 21.9566C221.551 22.458 221.216 22.9593 220.881 23.2936C220.378 24.1292 219.875 24.6306 219.373 24.7977C218.535 24.9648 217.362 24.7977 216.357 24.4635C215.351 24.1292 214.513 23.9621 213.843 24.1292C213.173 24.2963 212.67 24.9648 212.67 25.6333C212.67 27.3046 214.346 27.806 216.021 28.4745C216.357 28.6416 216.859 28.6416 217.194 28.8087C216.021 30.9814 215.184 33.4883 214.513 35.828C214.011 38.3349 213.34 41.8446 214.681 44.5186C216.021 44.3514 216.524 42.8473 217.027 41.6774C217.194 41.3432 217.194 41.1761 217.362 41.0089C219.038 36.6637 221.216 32.4855 223.562 28.4745C227.248 28.1402 230.767 27.4717 234.286 26.469C234.621 26.469 234.789 26.3019 235.124 26.3019C235.962 26.1347 236.967 25.9676 237.302 25.132C236.632 24.4635 235.626 24.4635 234.454 24.4635C234.118 24.4635 233.951 24.4635 233.616 24.4635C232.108 24.4635 230.432 24.4635 228.924 24.4635C227.583 24.4635 226.41 24.4635 225.573 24.4635C225.74 24.1292 225.908 23.795 226.243 23.4607C226.746 22.458 227.751 20.9538 226.578 19.1154ZM133.915 33.3211C133.077 34.1568 132.239 34.9924 131.234 35.828C132.072 35.9952 132.91 36.1623 133.915 36.3294C136.261 36.8308 138.774 37.3322 140.953 36.4965C140.617 35.1595 140.45 33.6554 140.785 32.3184C142.461 27.4717 149.498 23.795 156.201 24.6306C156.369 24.7977 156.704 24.6306 157.039 24.6306C157.541 24.4635 158.044 24.2963 158.547 24.6306C159.887 25.9676 159.05 27.4717 158.379 28.9759C157.877 29.9786 157.541 30.9814 157.709 31.817C158.044 32.8198 158.882 33.154 159.887 33.3211C160.725 33.4883 161.731 33.8225 162.233 34.6581C161.731 37.4993 155.028 37.3322 153.352 35.1595C153.017 35.3266 152.515 35.6609 152.179 35.828C149.666 37.3322 146.65 39.0034 142.628 37.8335C141.958 38.3349 141.288 38.8363 140.617 39.3377C138.104 40.6747 134.753 40.3404 131.401 40.0062C129.558 39.839 127.715 39.6719 125.872 39.6719C125.537 39.6719 125.202 39.6719 124.866 39.839C124.029 40.0062 123.191 40.1733 122.521 39.5048C122.185 38.1678 122.521 36.8308 123.358 35.828C124.699 33.9896 126.71 32.6526 128.888 31.3156C130.564 30.1457 132.239 29.143 133.412 27.806C129.558 28.3074 121.85 28.4745 124.196 23.4607C124.699 23.1265 125.202 23.2936 125.704 23.4607C126.039 23.4607 126.375 23.4607 126.71 23.4607C128.218 23.4607 129.726 23.2936 131.401 23.1265C132.742 22.9593 134.25 22.7922 135.423 22.7922C137.266 22.7922 139.78 23.1265 140.45 24.6306C141.288 26.9704 138.942 28.8087 137.434 30.1457C137.099 30.48 136.763 30.6471 136.596 30.9814C135.591 31.6499 134.753 32.4855 133.915 33.3211ZM103.251 25.2991C103.586 25.2991 103.921 25.2991 104.256 25.4662C105.764 30.3129 103.586 33.4883 101.24 36.6637C100.234 38.0007 99.2291 39.5048 98.5588 41.0089C98.3913 41.3432 98.3913 41.6774 98.3913 42.0117C98.3913 42.5131 98.2237 43.0144 97.8886 43.3487C95.3751 44.1843 94.2022 41.6774 94.0346 39.839C93.5319 35.4938 97.5535 31.3156 100.57 28.1402C101.24 27.3046 101.91 26.6361 102.58 25.9676C102.58 25.6334 102.916 25.2991 103.251 25.2991ZM122.521 26.9704C121.012 26.469 119.002 26.469 116.823 26.469C115.65 26.469 114.31 26.469 113.137 26.469C112.467 26.469 111.964 26.3019 111.294 26.3019C108.78 25.9676 106.267 25.8005 106.434 27.806C106.602 30.8142 112.802 30.48 115.986 30.1457C114.477 31.6499 112.634 32.9869 110.959 34.3239C110.121 34.9924 109.283 35.6609 108.613 36.3294C108.278 36.6637 107.942 36.8308 107.44 37.165C105.261 38.8363 102.413 41.0089 103.418 44.5186C105.094 45.5213 106.937 45.1871 109.115 44.8528C110.121 44.6857 111.126 44.5186 112.299 44.5186C115.148 44.3514 117.996 44.8528 120.677 45.1871C123.693 45.5213 126.71 46.0227 129.726 45.6885C132.072 45.5213 135.591 44.6857 135.423 42.1788C134.585 41.6774 133.747 41.8446 132.91 42.1788C132.574 42.3459 132.239 42.3459 131.737 42.3459C128.72 42.6802 125.704 42.0117 122.688 41.3432C119.672 40.6747 116.488 39.839 112.969 40.1733C113.975 39.0034 115.315 38.0007 116.488 36.8308C117.326 35.9951 118.164 35.3266 119.002 34.491C119.169 34.3239 119.169 34.3239 119.337 34.1568C121.348 32.3184 123.693 30.1457 122.521 26.9704ZM200.27 38.0007C201.108 35.6609 202.114 30.3129 198.762 29.4772C197.589 29.143 196.249 29.4772 195.243 30.1457C195.243 30.8143 195.579 30.9814 195.914 31.3156C196.249 31.4828 196.584 31.817 196.584 32.3184C196.416 32.8198 196.081 33.4883 195.746 34.3239C194.573 36.8308 192.898 40.0062 195.243 42.1788C197.924 44.6857 202.281 41.6774 203.622 40.6747C203.957 40.5075 204.292 40.1733 204.46 40.0062C205.13 39.5048 205.8 38.8363 206.303 38.8363C206.638 42.0117 207.811 44.1843 210.659 44.5186C211.162 43.8501 211.162 43.1816 210.995 42.5131C210.995 42.1788 210.827 41.8446 210.827 41.3432C210.994 39.3377 211.33 37.3322 211.832 35.4938C212 35.1595 212 34.6581 212.167 34.3239C212.67 32.6526 213.173 30.9814 212 29.6444C210.492 29.3101 209.822 30.3129 209.151 31.1485C208.984 31.3156 208.984 31.4828 208.816 31.6499C206.805 34.491 203.789 36.6637 200.27 38.0007ZM150.671 32.1513C149.498 32.6526 148.325 33.154 146.65 33.154C147.32 30.1457 150.001 29.143 153.017 28.3074C153.52 28.3074 153.352 28.6416 153.017 28.9759C152.85 29.143 152.682 29.4772 152.682 29.6444C152.347 30.1457 152.179 30.8143 152.179 31.3156C151.844 31.6499 151.342 31.9841 150.671 32.1513Z" fill="black"/>
</g>
</g>
</svg>
