<svg width="296" height="276" viewBox="0 0 296 276" fill="none" xmlns="http://www.w3.org/2000/svg">
<path d="M147.42 1.47769C143.734 1.9436 139.245 2.67575 137.368 3.07507C134.017 3.74066 128.321 4.93869 119.274 6.80231C113.243 8.00037 100.309 11.9273 95.1493 14.0571C92.9378 14.9224 90.3913 15.9207 89.4531 16.187C84.36 17.7844 68.5447 25.7047 62.3124 29.7648C52.2603 36.4205 50.786 37.4855 46.5641 41.0796C27.3981 57.3863 14.2633 77.2205 7.897 99.3842C4.94838 109.701 4.27824 114.959 4.34525 128.337C4.34525 141.981 5.01539 146.973 7.29387 149.968C11.3147 155.16 14.3974 153.163 14.3974 145.376C14.3974 130.866 17.614 113.162 22.8411 99.0515C32.4912 72.9608 51.7912 51.3961 76.8545 38.617C87.2416 33.3589 90.3243 32.2274 102.186 29.1657C105.939 28.1674 108.351 28.3005 108.083 29.4985C107.949 30.1641 102.856 32.7599 95.0153 36.0878C73.3697 45.4059 66.8024 49.4659 55.745 60.2482C40.3318 75.2238 31.4859 89.8665 25.7227 109.967C22.9752 119.485 22.171 130.4 22.6401 151.299C23.1762 173.397 23.9134 180.319 26.5269 188.239C28.8054 195.094 34.5686 207.141 37.9863 212.133C42.0072 217.857 56.4152 232.101 62.3794 236.161C63.1836 236.693 66.1992 238.823 69.0808 240.82C80.0711 248.407 90.5924 253.798 99.1702 256.061C105.469 257.792 117.063 260.121 119.274 260.121C121.419 260.121 122.759 261.785 121.62 263.116C120.682 264.248 114.65 264.448 109.557 263.516C94.6802 260.787 83.7569 257.259 71.6944 251.402C58.3586 244.88 43.8165 232.234 31.955 216.726C23.5783 205.81 21.4338 203.88 19.4904 205.544C15.7376 208.606 19.4234 220.519 27.7332 232.167C35.1717 242.55 50.3839 256.061 60.9721 261.652C83.0868 273.366 110.429 278.159 137.368 275.097C158.813 272.568 177.644 266.91 197.011 256.993C201.233 254.863 202.908 253.798 209.609 249.339C210.682 248.607 212.826 247.143 214.501 246.011C219.125 242.883 232.26 230.104 236.683 224.38C253.504 202.482 262.55 182.914 265.767 161.616C267.576 149.768 266.437 121.282 263.623 106.04C260.607 90.1327 257.926 82.8779 250.756 71.2968C245.931 63.5761 244.993 62.3781 238.157 55.5892C223.079 40.6137 199.423 27.2356 184.546 25.1723C171.545 23.3752 170.004 23.0424 168.597 21.7778C165.447 18.8493 167.524 16.9191 173.355 17.385C188.098 18.5831 199.892 22.3103 215.104 30.6966C231.791 39.815 244.792 49.7987 252.699 59.5827C264.427 74.0257 273.407 98.519 275.819 122.347C277.025 134.127 276.221 160.218 274.479 168.604C270.726 186.309 268.247 193.896 262.282 205.81C251.091 228.107 234.539 244.746 205.521 262.717C201.769 265.113 200.361 266.91 200.965 268.574C201.3 269.439 202.104 269.573 204.918 269.24C211.687 268.508 220.927 263.593 232.059 255.529C239.513 250.129 239.543 249.859 244.122 246.011C247.768 242.946 264.293 227.109 269.185 220.852C279.036 208.14 284.397 198.089 288.418 184.778C293.511 167.606 295.655 148.57 294.985 126.007C294.717 118.686 294.248 111.498 293.913 110.033C293.578 108.569 292.707 104.376 291.903 100.715C287.413 79.7497 276.623 57.3863 263.355 41.4789C245.73 20.3801 223.28 8.39972 189.304 2.07672C182.201 0.812134 155.931 0.412781 147.42 1.47769ZM178.314 55.6558C179.654 56.521 180.525 58.784 181.329 63.5096C181.731 66.0388 182.67 69.5663 183.273 71.43L184.412 74.7578L198.418 79.4834C212.893 84.3422 214.903 85.1409 225.224 90.1327C232.729 93.7268 234.539 95.4573 233.868 98.3193C233.332 100.715 230.183 102.712 227.971 102.113C227.234 101.913 214.769 102.047 200.428 102.446C176.035 103.045 147.688 104.775 136.698 106.373C134.151 106.772 128.522 107.504 124.3 108.037C116.192 109.035 108.284 110.1 92.1337 112.363C86.7726 113.095 80.1382 114.027 77.3906 114.36C74.643 114.759 69.5499 115.491 66.1322 116.09C60.436 117.022 59.6989 117.022 58.2246 116.024C56.4152 114.892 56.4822 114.892 57.0183 113.428C58.2916 110.1 82.4837 96.4557 99.5052 89.4006C103.727 87.6035 107.614 85.9396 108.083 85.5402C108.552 85.2074 111.836 80.6149 115.321 75.3569C119.676 68.8342 122.223 65.706 123.161 65.5063C123.965 65.3732 130.064 64.1086 136.698 62.7774C143.332 61.4463 149.699 60.2482 150.771 60.0486C151.91 59.8489 156.735 58.8505 161.493 57.7856C173.288 55.1898 176.973 54.7239 178.314 55.6558ZM134.219 113.228C134.353 113.894 133.749 115.558 132.878 116.889C131.94 118.22 130.332 120.683 129.259 122.347C126.445 126.606 122.491 130.334 120.816 130.334C118.872 130.334 116.929 128.47 116.929 126.54C116.929 122.347 121.553 116.955 127.986 113.761C132.342 111.498 133.883 111.431 134.219 113.228ZM217.986 123.145C219.125 124.277 218.991 126.873 217.45 131.265C216.11 134.926 216.11 135.192 217.182 136.39C217.785 137.123 218.991 137.655 219.795 137.655C221.806 137.655 224.486 139.851 223.816 140.916C222.945 142.314 217.986 144.311 215.239 144.311C213.764 144.311 211.62 143.845 210.346 143.246C208.269 142.247 208.001 142.247 206.125 143.579C201.769 146.707 195.737 149.036 192.521 148.837C190.845 148.77 189.036 149.036 188.5 149.436C184.278 152.83 178.381 154.294 168.262 154.361C164.509 154.361 160.086 154.627 158.344 154.893C152.915 155.759 151.709 153.629 154.859 148.704C156.333 146.441 164.911 138.587 171.21 133.728C172.148 132.996 172.752 132.33 172.551 132.131C172.35 131.931 170.138 132.131 167.524 132.463C164.978 132.796 161.895 132.929 160.622 132.663C158.008 132.197 155.797 130.201 155.797 128.403C155.797 126.007 157.606 125.009 162.029 125.009C164.308 125.009 168.262 124.543 170.875 124.011C173.422 123.478 177.376 123.012 179.52 123.012C184.345 123.012 185.953 124.144 185.953 127.472C185.953 129.535 185.015 130.733 177.845 137.988C173.422 142.514 170.004 146.307 170.339 146.507C171.478 147.106 181.664 147.572 183.876 147.106L186.221 146.574L186.02 142.913C185.886 139.718 186.154 138.853 188.165 135.991C191.113 131.665 197.279 126.74 202.037 124.876C204.047 124.077 208.001 123.212 210.749 123.012C213.496 122.746 216.11 122.546 216.512 122.48C216.847 122.413 217.517 122.679 217.986 123.145ZM96.9587 124.41C101.047 126.007 104.598 129.069 105.939 132.131C106.475 133.329 106.877 136.058 106.877 138.187C106.877 145.908 100.913 153.163 91.5305 156.824C84.4271 159.619 81.8135 160.018 79.6691 158.621C78.7309 158.022 77.8597 157.622 77.7927 157.755C77.6586 157.889 76.9885 159.619 76.1843 161.616C66.5343 186.176 63.8537 190.768 60.503 187.773C59.2968 186.708 59.1628 186.043 59.4978 181.583C60.235 171.666 67.0704 152.364 74.1069 140.45C75.9163 137.455 77.3906 134.86 77.3906 134.793C77.3906 134.66 76.3854 134.726 75.1121 134.86C73.3027 135.059 72.6326 134.86 72.0295 133.728C71.0242 131.864 71.5604 130.334 74.1069 127.938C78.7979 123.478 90.0562 121.681 96.9587 124.41ZM153.854 132.397C155.596 134.127 155.194 136.191 152.245 140.251C149.9 143.446 148.962 144.51 141.925 151.699L137.1 156.624L144.606 156.691C148.761 156.691 156.065 156.89 160.823 157.023C166.988 157.223 170.473 157.023 172.752 156.358C178.649 154.694 178.582 158.288 172.685 161.15C168.061 163.479 163.035 164.212 148.761 164.544C140.384 164.811 134.42 165.276 131.337 166.009C121.486 168.338 119.609 168.005 119.609 163.945C119.609 161.15 122.357 157.822 132.61 148.304C141.992 139.652 142.662 138.786 139.513 139.718C136.497 140.584 130.064 140.45 127.986 139.519C127.048 139.119 126.11 137.988 125.842 137.123C125.105 134.194 127.249 133.262 135.827 132.663C139.982 132.397 144.74 131.931 146.415 131.665C151.374 130.866 152.379 130.933 153.854 132.397ZM121.62 135.392C123.161 139.385 121.821 145.043 116.661 155.825C114.583 160.152 112.908 164.145 112.908 164.811C112.908 167.872 109.289 168.538 106.81 165.875C105.402 164.411 105.201 163.546 105.201 159.419C105.201 155.093 105.469 154.161 107.815 149.968C110.63 144.91 117.398 134.993 118.604 134.194C119.877 133.262 121.017 133.662 121.62 135.392ZM198.686 161.616C198.686 162.681 198.15 164.611 197.547 165.942C196.944 167.207 196.609 168.471 196.877 168.671C197.078 168.937 199.825 168.471 202.908 167.739C210.212 165.875 215.775 165.21 216.378 166.142C217.249 167.539 212.156 169.936 195 176.392C192.588 177.323 192.253 177.789 190.979 181.65C190.175 183.979 189.036 187.107 188.366 188.572C187.696 190.036 186.422 193.564 185.551 196.426C182 207.474 180.324 209.671 178.582 205.544C177.376 202.682 178.113 194.096 180.123 186.242C181.866 179.586 181.731 178.921 178.716 178.921C176.638 178.921 173.757 175.992 174.36 174.461C175.231 171.932 176.035 171.599 180.86 171.599H185.752L188.902 166.674C192.789 160.484 195.536 158.022 197.413 158.953C198.217 159.419 198.686 160.351 198.686 161.616ZM138.842 170.002C139.044 170.601 138.44 174.262 137.435 178.189C135.291 186.642 135.224 187.906 136.899 187.241C137.502 186.974 138.775 186.575 139.58 186.375C142.059 185.843 141.255 188.838 138.373 190.702C134.286 193.43 133.816 194.096 133.347 197.357C133.079 199.088 132.476 202.216 132.007 204.213C131.538 206.21 130.935 208.672 130.734 209.671C129.997 212.799 127.182 215.528 124.568 215.528C120.749 215.528 119.408 211.201 120.95 203.547C121.218 201.883 121.419 200.486 121.285 200.352C121.218 200.286 118.135 201.151 114.516 202.416L107.882 204.612L105.805 212.932C103.459 222.25 102.32 224.779 99.7733 226.776C97.4948 228.573 95.3503 228.573 93.742 226.776C92.1337 224.979 92.1337 217.391 93.742 212.666C95.5514 207.408 95.2833 206.476 91.9996 206.01C88.3809 205.544 85.7003 202.882 86.7726 200.885C87.7107 199.088 90.3913 197.823 95.3503 196.825C98.9691 196.093 99.6393 195.693 99.9743 194.229C100.51 191.966 107.011 179.586 109.557 175.926C113.377 170.401 116.326 168.737 117.264 171.533C117.8 173.197 115.522 182.515 113.31 188.172C112.305 190.568 111.568 192.765 111.568 193.098C111.568 193.763 114.784 193.297 120.414 191.766C124.166 190.768 124.166 190.768 125.708 186.642C128.187 180.052 132.007 172.731 134.017 170.734C136.095 168.737 138.172 168.405 138.842 170.002ZM172.685 177.124C172.886 177.989 172.551 181.982 172.081 185.976C171.545 189.969 171.277 195.094 171.478 197.357C171.746 200.685 171.612 201.484 170.741 201.817C168.999 202.482 165.715 200.086 164.04 196.958C163.169 195.294 162.364 193.896 162.23 193.763C162.096 193.564 160.488 195.028 158.746 196.891C153.049 202.948 146.616 205.078 143.064 202.149C141.657 200.951 141.389 200.219 141.456 196.958C141.456 194.762 142.126 191.5 143.064 188.971L144.673 184.711L143.131 183.513C141.255 181.982 141.992 180.651 145.142 179.986C148.224 179.387 150.369 180.185 151.441 182.315C152.58 184.445 152.781 189.37 151.776 191.833C150.905 194.229 151.642 194.029 155.998 190.635C160.086 187.507 163.638 183.58 166.385 179.254C168.329 176.192 168.999 175.593 170.942 175.593C171.947 175.593 172.484 176.059 172.685 177.124Z" fill="white"/>
<path d="M204.383 131.597C201.77 132.729 196.677 137.654 196.677 138.985C196.677 140.05 197.883 139.784 202.44 137.654C205.791 136.123 206.796 135.325 207.131 133.86C207.399 132.862 207.868 131.597 208.27 131.132C209.208 129.933 207.6 130.133 204.383 131.597Z" fill="white"/>
<path d="M85.0986 133.527C84.8976 133.727 84.7635 134.792 84.7635 135.857C84.7635 136.922 83.4233 141.78 81.7479 146.706C78.3302 156.689 78.2632 157.222 79.9385 156.356C80.5417 156.024 83.0212 154.959 85.3667 153.894C90.6608 151.498 95.7538 146.772 96.7591 143.311C97.2952 141.248 97.2282 140.383 96.1559 138.386C95.4858 136.988 94.0785 135.524 93.0063 134.991C90.8618 133.993 85.6347 133.061 85.0986 133.527Z" fill="white"/>
<path d="M2.47076 166.142C0.19228 168.538 -0.47786 172.465 0.326309 178.189C1.59958 187.108 3.67701 191.034 8.368 193.364C11.9868 195.228 14.4663 195.294 16.0746 193.564C17.1468 192.432 17.1468 191.7 16.4767 185.444C16.0746 181.65 15.5385 176.924 15.3375 174.927C14.6003 167.939 12.3888 165.01 7.4298 164.478C4.68222 164.145 4.21312 164.278 2.47076 166.142Z" fill="white"/>
<path d="M253.544 251.809V246.357H251.44V245.628H256.501V246.357H254.389V251.809H253.544Z" fill="white"/>
<path d="M257.346 251.809V245.628H258.618L260.128 250.004C260.268 250.412 260.369 250.717 260.434 250.92C260.506 250.695 260.619 250.364 260.773 249.929L262.302 245.628H263.438V251.809H262.624V246.636L260.769 251.809H260.007L258.16 246.547V251.809H257.346Z" fill="white"/>
</svg>
