<svg width="25" height="25" viewBox="0 0 25 25" fill="none" xmlns="http://www.w3.org/2000/svg">
<g id="pizza (11) 1" clip-path="url(#clip0_375_7982)">
<path id="Vector" d="M9.96017 18.9209C9.74288 18.9209 9.53047 18.9853 9.3498 19.1061C9.16913 19.2268 9.02832 19.3984 8.94516 19.5991C8.86201 19.7999 8.84025 20.0208 8.88264 20.2339C8.92503 20.447 9.02967 20.6427 9.18332 20.7964C9.33696 20.95 9.53272 21.0547 9.74583 21.0971C9.95895 21.1394 10.1798 21.1177 10.3806 21.0345C10.5813 20.9514 10.7529 20.8106 10.8736 20.6299C10.9944 20.4492 11.0588 20.2368 11.0588 20.0195C11.0585 19.7283 10.9426 19.449 10.7366 19.2431C10.5307 19.0371 10.2514 18.9212 9.96017 18.9209ZM9.96017 20.3857C9.88774 20.3857 9.81693 20.3643 9.75671 20.324C9.69649 20.2838 9.64955 20.2266 9.62183 20.1597C9.59411 20.0928 9.58686 20.0191 9.60099 19.9481C9.61512 19.8771 9.65 19.8118 9.70122 19.7606C9.75243 19.7094 9.81769 19.6745 9.88872 19.6604C9.95976 19.6462 10.0334 19.6535 10.1003 19.6812C10.1672 19.7089 10.2244 19.7559 10.2647 19.8161C10.3049 19.8763 10.3264 19.9471 10.3264 20.0195C10.3263 20.1166 10.2877 20.2097 10.219 20.2784C10.1503 20.347 10.0573 20.3856 9.96017 20.3857ZM23.4601 21.9117C23.4594 21.9048 23.4581 21.8981 23.4571 21.8914C23.4563 21.8864 23.4558 21.8813 23.4547 21.8763C23.4521 21.8631 23.4488 21.8501 23.4447 21.8374L20.5356 12.3827L21.1098 2.92969H21.3281C21.4325 2.92968 21.5355 2.90485 21.6284 2.85725C21.7214 2.80966 21.8017 2.74065 21.8628 2.65593C21.9238 2.5712 21.9639 2.47318 21.9796 2.36994C21.9954 2.2667 21.9864 2.16119 21.9534 2.06211L21.4608 0.584229C21.4043 0.414002 21.2955 0.265935 21.1499 0.161059C21.0044 0.0561821 20.8295 -0.000171998 20.6501 3.94345e-07H4.34991C4.17053 -0.000158326 3.99565 0.0562076 3.85012 0.161093C3.70459 0.265978 3.59581 0.414049 3.53922 0.584278L3.04669 2.06201C3.01365 2.1611 3.00464 2.26662 3.02038 2.36987C3.03612 2.47313 3.07618 2.57116 3.13725 2.6559C3.19831 2.74064 3.27864 2.80965 3.37161 2.85725C3.46458 2.90485 3.56753 2.92968 3.67198 2.92969H3.89024L4.46446 12.3827L1.55528 21.8374C1.55123 21.8501 1.54789 21.8631 1.54527 21.8763C1.54425 21.8813 1.54376 21.8864 1.54293 21.8914C1.5419 21.8981 1.54064 21.9048 1.53995 21.9117C1.53862 21.9248 1.538 21.938 1.5381 21.9512V24.1456C1.53837 24.3721 1.62848 24.5893 1.78867 24.7495C1.94886 24.9096 2.16605 24.9997 2.39259 25H22.6074C22.834 24.9997 23.0512 24.9096 23.2114 24.7494C23.3716 24.5892 23.4617 24.3721 23.4619 24.1455V21.9512C23.462 21.938 23.4614 21.9248 23.4601 21.9116V21.9117ZM22.5999 21.5821H21.1689L19.1887 15.1465L20.0816 13.3976L22.5999 21.5821ZM12.5 16.2842C11.064 16.2859 9.68259 16.8347 8.63688 17.8189C7.59117 18.8031 6.95972 20.1488 6.87101 21.582H4.59742L6.47555 15.4785H18.5246L20.4026 21.582H18.129C18.0403 20.1488 17.4089 18.8031 16.3631 17.8189C15.3174 16.8347 13.936 16.2859 12.5 16.2842ZM17.3951 21.582H13.8039C13.7067 21.582 13.6136 21.6206 13.5449 21.6893C13.4762 21.758 13.4377 21.8511 13.4377 21.9482C13.4377 22.1969 13.3389 22.4354 13.163 22.6113C12.9872 22.7871 12.7487 22.8859 12.5 22.8859C12.2513 22.8859 12.0128 22.7871 11.837 22.6113C11.6612 22.4354 11.5624 22.1969 11.5624 21.9482C11.5624 21.8511 11.5238 21.758 11.4551 21.6893C11.3864 21.6206 11.2933 21.582 11.1962 21.582H7.60484C7.69127 20.3427 8.24456 19.1823 9.15307 18.335C10.0616 17.4876 11.2577 17.0164 12.5 17.0164C13.7423 17.0164 14.9384 17.4876 15.8469 18.335C16.7554 19.1823 17.3087 20.3427 17.3951 21.582ZM19.5679 12.793L18.5709 14.7461H6.42921L5.43209 12.793H19.5679ZM5.17862 12.0605L4.62403 2.92969H10.8704C10.9536 3.29975 11.1603 3.63045 11.4565 3.86741C11.7527 4.10437 12.1207 4.23346 12.5 4.23346C12.8793 4.23346 13.2473 4.10437 13.5435 3.86741C13.8397 3.63045 14.0464 3.29975 14.1296 2.92969H20.376L19.8214 12.0605H5.17862ZM3.77364 2.19727L4.23409 0.815821C4.24216 0.791557 4.25767 0.770448 4.2784 0.75548C4.29913 0.740513 4.32405 0.732446 4.34962 0.732422H20.6504C20.676 0.732443 20.7009 0.740502 20.7216 0.75546C20.7423 0.770418 20.7578 0.791517 20.7659 0.815772L21.2264 2.19727H13.8039C13.7067 2.19727 13.6136 2.23585 13.5449 2.30453C13.4762 2.3732 13.4377 2.46635 13.4377 2.56348C13.4377 2.81216 13.3389 3.05065 13.163 3.22649C12.9872 3.40234 12.7487 3.50112 12.5 3.50112C12.2513 3.50112 12.0128 3.40234 11.837 3.22649C11.6612 3.05065 11.5624 2.81216 11.5624 2.56348C11.5624 2.46635 11.5238 2.3732 11.4551 2.30453C11.3864 2.23585 11.2933 2.19727 11.1962 2.19727H3.77364ZM4.91842 13.3975L5.81144 15.1466L3.83106 21.582H2.40011L4.91842 13.3975ZM22.7295 24.1456C22.7295 24.178 22.7166 24.209 22.6937 24.2319C22.6708 24.2548 22.6398 24.2677 22.6074 24.2677H2.39259C2.36022 24.2677 2.32919 24.2548 2.3063 24.2319C2.28341 24.209 2.27054 24.178 2.27052 24.1456V22.3145H4.09981L4.10172 22.3146C4.1023 22.3146 4.10289 22.3144 4.10353 22.3144H10.8704C10.9536 22.6845 11.1603 23.0152 11.4565 23.2521C11.7527 23.4891 12.1207 23.6182 12.5 23.6182C12.8793 23.6182 13.2473 23.4891 13.5435 23.2521C13.8397 23.0152 14.0464 22.6845 14.1296 22.3144H20.8971L20.8983 22.3145L20.8996 22.3144H22.7295V24.1456ZM10.8078 17.7488C10.7306 17.7488 10.655 17.7717 10.5908 17.8146C10.5266 17.8575 10.4765 17.9185 10.4469 17.9899C10.4174 18.0613 10.4096 18.1398 10.4247 18.2156C10.4398 18.2914 10.477 18.361 10.5316 18.4156C10.5862 18.4702 10.6558 18.5075 10.7316 18.5225C10.8074 18.5376 10.8859 18.5299 10.9573 18.5003C11.0287 18.4707 11.0897 18.4207 11.1326 18.3564C11.1755 18.2922 11.1984 18.2167 11.1984 18.1394C11.1983 18.0358 11.1571 17.9366 11.0839 17.8633C11.0107 17.7901 10.9114 17.7489 10.8078 17.7488ZM14.3511 20.3857C14.3511 20.603 14.4155 20.8154 14.5362 20.9961C14.657 21.1768 14.8285 21.3176 15.0293 21.4007C15.23 21.4839 15.4509 21.5057 15.6641 21.4633C15.8772 21.4209 16.0729 21.3162 16.2266 21.1626C16.3802 21.0089 16.4848 20.8132 16.5272 20.6001C16.5696 20.387 16.5479 20.1661 16.4647 19.9653C16.3816 19.7646 16.2408 19.593 16.0601 19.4723C15.8794 19.3515 15.667 19.2871 15.4497 19.2871C15.1584 19.2874 14.8792 19.4033 14.6732 19.6093C14.4673 19.8152 14.3514 20.0945 14.3511 20.3857ZM15.8159 20.3857C15.8159 20.4582 15.7945 20.529 15.7542 20.5892C15.714 20.6494 15.6568 20.6964 15.5899 20.7241C15.5229 20.7518 15.4493 20.759 15.3783 20.7449C15.3072 20.7308 15.242 20.6959 15.1908 20.6447C15.1396 20.5935 15.1047 20.5282 15.0905 20.4572C15.0764 20.3861 15.0837 20.3125 15.1114 20.2456C15.1391 20.1787 15.186 20.1215 15.2463 20.0812C15.3065 20.041 15.3773 20.0195 15.4497 20.0195C15.5468 20.0196 15.6399 20.0583 15.7086 20.1269C15.7772 20.1956 15.8158 20.2886 15.8159 20.3857ZM14.857 18.9209C14.9343 18.9209 15.0098 18.898 15.074 18.8551C15.1383 18.8121 15.1883 18.7511 15.2179 18.6798C15.2474 18.6084 15.2552 18.5298 15.2401 18.4541C15.225 18.3783 15.1878 18.3087 15.1332 18.2541C15.0786 18.1994 15.009 18.1622 14.9332 18.1472C14.8574 18.1321 14.7789 18.1398 14.7075 18.1694C14.6361 18.1989 14.5751 18.249 14.5322 18.3133C14.4893 18.3775 14.4664 18.453 14.4664 18.5303C14.4665 18.6338 14.5077 18.7331 14.5809 18.8063C14.6542 18.8796 14.7534 18.9208 14.857 18.9209ZM12.838 17.6392C12.6208 17.6392 12.4083 17.7036 12.2277 17.8243C12.047 17.945 11.9062 18.1166 11.823 18.3174C11.7399 18.5181 11.7181 18.739 11.7605 18.9521C11.8029 19.1652 11.9075 19.361 12.0612 19.5146C12.2148 19.6683 12.4106 19.7729 12.6237 19.8153C12.8368 19.8577 13.0577 19.836 13.2585 19.7528C13.4592 19.6696 13.6308 19.5288 13.7515 19.3482C13.8722 19.1675 13.9367 18.9551 13.9367 18.7378C13.9363 18.4465 13.8205 18.1673 13.6145 17.9613C13.4086 17.7554 13.1293 17.6395 12.838 17.6392ZM12.838 19.104C12.7656 19.104 12.6948 19.0825 12.6346 19.0423C12.5744 19.002 12.5274 18.9449 12.4997 18.8779C12.472 18.811 12.4647 18.7374 12.4789 18.6663C12.493 18.5953 12.5279 18.5301 12.5791 18.4788C12.6303 18.4276 12.6956 18.3927 12.7666 18.3786C12.8376 18.3645 12.9113 18.3717 12.9782 18.3995C13.0451 18.4272 13.1023 18.4741 13.1425 18.5343C13.1828 18.5946 13.2043 18.6654 13.2043 18.7378C13.2042 18.8349 13.1655 18.928 13.0969 18.9966C13.0282 19.0653 12.9351 19.1039 12.838 19.104ZM12.5 20.7275C12.4228 20.7275 12.3472 20.7504 12.283 20.7934C12.2188 20.8363 12.1687 20.8973 12.1391 20.9687C12.1096 21.0401 12.1018 21.1186 12.1169 21.1944C12.132 21.2701 12.1692 21.3397 12.2238 21.3944C12.2784 21.449 12.348 21.4862 12.4238 21.5013C12.4996 21.5164 12.5781 21.5086 12.6495 21.4791C12.7209 21.4495 12.7819 21.3994 12.8248 21.3352C12.8677 21.2709 12.8906 21.1954 12.8906 21.1182C12.8905 21.0146 12.8493 20.9153 12.7761 20.8421C12.7029 20.7689 12.6036 20.7277 12.5 20.7275Z" fill="black"/>
</g>
<defs>
<clipPath id="clip0_375_7982">
<rect width="25" height="25" fill="white"/>
</clipPath>
</defs>
</svg>
