<svg width="47" height="47" viewBox="0 0 47 47" fill="none" xmlns="http://www.w3.org/2000/svg">
<g id="geo-alt-fill 1" clip-path="url(#clip0_371_3863)">
<g id="Group">
<path id="Vector" d="M23.5 47C23.5 47 41.125 30.2974 41.125 17.625C41.125 12.9506 39.2681 8.46757 35.9628 5.16224C32.6574 1.85691 28.1744 0 23.5 0C18.8256 0 14.3426 1.85691 11.0372 5.16224C7.73191 8.46757 5.875 12.9506 5.875 17.625C5.875 30.2974 23.5 47 23.5 47ZM23.5 26.4375C21.1628 26.4375 18.9213 25.509 17.2686 23.8564C15.616 22.2037 14.6875 19.9622 14.6875 17.625C14.6875 15.2878 15.616 13.0463 17.2686 11.3936C18.9213 9.74096 21.1628 8.8125 23.5 8.8125C25.8372 8.8125 28.0787 9.74096 29.7314 11.3936C31.384 13.0463 32.3125 15.2878 32.3125 17.625C32.3125 19.9622 31.384 22.2037 29.7314 23.8564C28.0787 25.509 25.8372 26.4375 23.5 26.4375Z" fill="#DA1A32"/>
</g>
<circle id="Ellipse 1" cx="23.5001" cy="17.7287" r="14.4298" fill="white"/>
<g id="Group 38192">
<path id="Vector_2" fill-rule="evenodd" clip-rule="evenodd" d="M29.7983 3.52243C36.9056 5.78003 37.8748 14.0041 37.8748 14.0041C38.1171 16.1005 38.0363 18.1162 37.6325 20.2125C37.6325 20.2931 37.5517 20.4544 37.5517 20.535C37.2287 21.9057 36.6633 24.8083 32.0597 28.356C31.0905 29.1623 29.9598 29.9686 28.7483 30.1298C28.5868 30.1298 28.4253 30.1298 28.4253 30.0492C28.3445 29.9686 28.5868 29.646 28.6676 29.646C31.7366 27.7916 36.0172 24.7277 36.1787 17.4711C36.1787 17.4711 36.5826 10.6177 32.3828 7.39259C30.929 6.2638 29.3137 5.37688 27.5369 4.73186C27.2946 4.65123 25.1947 4.16746 25.1139 4.5706C25.0331 5.05437 25.9216 5.135 26.3254 5.135C27.2138 5.21563 28.1022 5.53814 28.9099 5.94128C32.2212 7.55385 33.352 9.48893 33.7558 10.2146C33.7558 10.2952 33.8365 10.3758 33.8365 10.3758C35.1288 12.4722 35.2096 16.3423 35.2096 17.3905C35.2096 17.4711 35.2096 17.5518 35.2096 17.5518C35.2903 21.3413 33.352 23.9214 32.3828 25.2921C32.3828 25.3727 32.302 25.3727 32.302 25.4534C30.6867 27.6303 27.2138 30.3717 21.3987 30.8555C18.895 31.0167 16.3913 30.533 14.1299 29.3235C12.5953 28.356 11.3031 27.0659 10.3339 25.534C10.0916 25.0502 9.52624 23.6795 10.1724 23.5989C10.4147 23.5989 10.657 23.9214 11.0608 24.4858C11.3031 24.889 11.7069 25.2921 12.1107 25.7759C12.9991 26.824 14.1299 27.711 15.3413 28.356C17.1989 29.2429 19.3796 29.7267 20.268 29.646C20.3488 29.646 20.4295 29.5654 20.4295 29.4848C20.4295 29.4042 20.3488 29.3235 20.268 29.3235C19.3796 29.1623 18.4912 29.001 17.6835 28.7591C15.5029 27.8722 13.5645 26.4209 12.03 24.6471C11.2223 23.5183 10.657 22.3089 10.4147 20.9382C10.1724 19.0031 10.1724 16.9874 10.3339 15.0523C10.7377 12.3916 12.1915 9.9727 14.2106 8.27951C15.3413 7.31197 17.1989 6.50568 18.2489 6.10254C18.5719 6.02191 18.7335 5.86065 18.895 5.86065C18.9758 5.86065 18.9758 5.78002 18.9758 5.78002C18.9758 5.6994 18.895 5.6994 18.895 5.6994C18.7335 5.6994 18.6527 5.6994 18.4912 5.6994C18.4104 5.6994 18.4104 5.6994 18.3296 5.6994C18.2489 5.6994 18.2489 5.6994 18.1681 5.6994C17.845 5.78003 9.52624 7.63448 9.36471 17.7937C9.36471 18.6806 8.55706 18.1968 8.47629 17.6324C8.234 16.1811 8.234 14.6492 8.55706 13.1978C9.20318 10.6984 10.657 8.52139 12.5953 6.90882C15.0183 4.81248 18.4912 3.60306 21.3179 3.11929H21.3987C23.9024 2.63552 25.9216 2.313 29.7983 3.52243ZM9.76854 22.067C9.68777 21.6638 9.68777 21.3413 9.68777 20.9382C9.68777 20.4544 9.60701 20.0513 9.36471 19.6481C9.20318 19.4869 9.04165 19.4062 8.79935 19.4062C7.74941 19.4062 8.07247 21.0188 8.234 21.5832C8.31476 21.8251 8.39553 22.067 8.63782 22.2282C8.79935 22.3895 9.04165 22.4701 9.28395 22.5507C9.44548 22.6314 9.52624 22.5507 9.68777 22.4701C9.76854 22.3895 9.8493 22.2282 9.76854 22.067Z" fill="#DA1A32"/>
<path id="Vector_3" d="M30.2022 15.9398C30.0407 15.8591 29.9599 15.8591 29.7984 15.7785C29.3946 15.6173 28.4254 15.3754 27.6985 15.2141C27.2947 15.1335 26.8101 14.9722 26.7293 14.9722C26.5678 14.5691 26.487 14.0853 26.4062 13.6822C26.4062 13.5209 26.3255 13.3597 26.3255 13.279C26.2447 13.0371 26.164 12.8759 25.9217 12.9565C25.8409 12.9565 24.7102 13.279 22.8526 13.7628C21.6411 14.0853 20.3489 14.4078 20.2681 14.4078C20.1873 14.4078 20.1066 14.4885 19.2989 15.7785C19.0566 16.1817 18.7336 16.6654 18.7336 16.6654C18.7336 16.6654 18.572 16.7461 18.3297 16.8267C17.8451 17.0686 16.876 17.4717 16.0683 17.9555C15.0991 18.5199 14.1299 19.0843 13.3223 19.8099C13.2415 19.8906 13.2415 19.9712 13.3223 20.0518C13.4031 20.1324 13.5646 20.2131 13.7261 20.2131H13.8069C13.9684 20.2131 19.5412 19.0843 22.691 18.5199C23.4987 18.3586 24.4679 18.278 25.6794 18.1167C28.5869 17.7942 31.4944 17.633 31.656 17.633C31.8175 17.633 31.979 17.5523 32.1406 17.4717C32.2213 17.3911 32.3021 17.2298 32.3021 17.0686C32.0598 16.7461 31.4945 16.5042 30.2022 15.9398Z" fill="white"/>
</g>
</g>
<defs>
<clipPath id="clip0_371_3863">
<rect width="47" height="47" fill="white"/>
</clipPath>
</defs>
</svg>
